<svg width="20" height="20" viewBox="0 0 20 20" fill="none" xmlns="http://www.w3.org/2000/svg">
<g clip-path="url(#clip0_580_9306)">
<path d="M10.2041 8.18188V12.0546H15.6958C15.4546 13.3001 14.731 14.3547 13.6456 15.0638L16.9573 17.582C18.8868 15.8366 20 13.2729 20 10.2275C20 9.51837 19.9351 8.83648 19.8145 8.18199L10.2041 8.18188Z" fill="#4285F4"/>
<path d="M4.48536 11.9033L3.73845 12.4636L1.0946 14.4818C2.77364 17.7454 6.21497 20 10.2038 20C12.9589 20 15.2687 19.1091 16.9571 17.5819L13.6454 15.0636C12.7363 15.6636 11.5767 16.0273 10.2038 16.0273C7.55077 16.0273 5.29664 14.2728 4.48953 11.9091L4.48536 11.9033Z" fill="#34A853"/>
<path d="M1.09467 5.51831C0.398969 6.86372 0.00012207 8.38193 0.00012207 10.0001C0.00012207 11.6183 0.398969 13.1365 1.09467 14.4819C1.09467 14.4909 4.48992 11.9 4.48992 11.9C4.28584 11.3 4.16521 10.6637 4.16521 9.99999C4.16521 9.33626 4.28584 8.69993 4.48992 8.09993L1.09467 5.51831Z" fill="#FBBC05"/>
<path d="M10.204 3.98184C11.7068 3.98184 13.0426 4.49092 14.1094 5.47275L17.0315 2.60914C15.2597 0.990976 12.9592 0 10.204 0C6.21518 0 2.77364 2.24546 1.0946 5.51822L4.48975 8.10005C5.29676 5.73638 7.55097 3.98184 10.204 3.98184Z" fill="#EA4335"/>
</g>
<defs>
<clipPath id="clip0_580_9306">
<rect width="20" height="20" fill="white"/>
</clipPath>
</defs>
</svg>
