<svg width="236" height="26" viewBox="0 0 236 26" fill="none" xmlns="http://www.w3.org/2000/svg">
<path d="M26.585 18.9682H22.6684V14.645C22.5085 14.751 22.3433 14.8517 22.1728 14.947C22.0129 15.0318 21.8424 15.1113 21.6612 15.1854C20.9046 15.5033 20.1212 15.6623 19.3113 15.6623H7.36962C6.90069 15.6623 6.45841 15.7523 6.04277 15.9325C5.63778 16.102 5.28076 16.3404 4.97169 16.6477C4.67329 16.9444 4.43349 17.2993 4.25232 17.7126C4.0818 18.1152 3.99654 18.5444 3.99654 19L0 18.9682V11.6887C0 11.0424 0.122561 10.4331 0.367682 9.86093C0.612803 9.28874 0.948512 8.79073 1.37481 8.36689C1.80111 7.94305 2.30201 7.60927 2.87751 7.36556C3.45301 7.12185 4.06581 7 4.71592 7H26.585V18.9682ZM19.3113 13.0079C19.7695 13.0079 20.2012 12.9232 20.6062 12.7536C21.0218 12.5735 21.3788 12.3351 21.6772 12.0384C21.9863 11.7311 22.2261 11.3762 22.3966 10.9735C22.5778 10.5709 22.6684 10.1364 22.6684 9.6702V9.63841H5.91488C5.63778 9.63841 5.37668 9.69139 5.13156 9.79735C4.88644 9.90331 4.67329 10.0464 4.49211 10.2265C4.31093 10.4066 4.16706 10.6185 4.06048 10.8623C3.96457 11.0954 3.91661 11.3497 3.91661 11.6252V14.1046C4.08713 13.9775 4.26298 13.8662 4.44415 13.7709C4.63599 13.6649 4.82782 13.5695 5.01965 13.4848C5.76567 13.1669 6.549 13.0079 7.36962 13.0079H19.3113Z" fill="white"/>
<path d="M48.5859 16.1391V16.1232L48.6019 16.1391H48.5859ZM44.5414 14.4066C44.8185 14.9788 45.2235 15.445 45.7564 15.8053C46.2999 16.155 46.9074 16.3298 47.5788 16.3298H55.476V18.9682H46.3319C45.5432 18.9682 44.8025 18.8305 44.1098 18.555C43.4171 18.2795 42.7989 17.8927 42.2554 17.3947C42.2234 17.3629 42.1915 17.3311 42.1595 17.2993C42.1382 17.2676 42.1115 17.2358 42.0796 17.204C41.6959 16.8225 41.3655 16.3987 41.0884 15.9325C40.8113 15.4556 40.6088 14.947 40.4809 14.4066H36.1007C35.6531 14.4278 35.2322 14.5285 34.8378 14.7086C34.4435 14.8781 34.0918 15.1166 33.7827 15.4238C33.495 15.6993 33.2659 16.0172 33.0953 16.3775C32.9355 16.7272 32.8342 17.098 32.7916 17.4901V18.9682H28.875V7.04768H51.7832C52.2947 7.04768 52.7743 7.14834 53.2219 7.34967C53.6695 7.5404 54.0585 7.8053 54.3889 8.14437C54.7299 8.47285 54.9964 8.8596 55.1882 9.30464C55.3907 9.74967 55.4919 10.2265 55.4919 10.7351C55.4919 11.2437 55.3907 11.7205 55.1882 12.1656C54.9964 12.6106 54.7299 13.0026 54.3889 13.3417C54.0585 13.6702 53.6695 13.9298 53.2219 14.1205C52.7743 14.3113 52.2947 14.4066 51.7832 14.4066H44.5414ZM50.5362 11.7682C50.824 11.7682 51.0691 11.6676 51.2716 11.4662C51.3569 11.3709 51.4261 11.2649 51.4794 11.1483C51.5434 11.0212 51.5753 10.8834 51.5753 10.7351C51.5753 10.449 51.4741 10.2053 51.2716 10.004C51.0691 9.79205 50.824 9.68609 50.5362 9.68609H32.7916V12.8013C32.9515 12.6848 33.1167 12.5841 33.2872 12.4993C33.4577 12.4146 33.6335 12.3298 33.8147 12.245C34.4115 12.0013 35.003 11.8477 35.5892 11.7841H35.8769C35.9515 11.7841 36.0208 11.7841 36.0848 11.7841C36.1487 11.7735 36.1913 11.7682 36.2126 11.7682H50.5362Z" fill="white"/>
<path d="M80.9661 9.68609H70.3993C70.9215 10.3219 71.3265 11.0265 71.6142 11.8C71.9126 12.5735 72.0618 13.3947 72.0618 14.2636V18.9682H68.1612V14.057C68.1612 13.453 68.044 12.8861 67.8095 12.3563C67.5857 11.8265 67.2766 11.3656 66.8823 10.9735C66.488 10.5709 66.0244 10.2583 65.4915 10.0358C64.9587 9.80265 64.3885 9.68609 63.781 9.68609H56.907V7.06358H80.9661V9.68609Z" fill="white"/>
<path d="M86.7788 7.04768V18.9682H82.8782V7.04768H86.7788Z" fill="white"/>
<path d="M94.2466 12.0861C95.0353 11.7576 95.8506 11.5934 96.6925 11.5934H105.917V14.2318H96.6925C96.1916 14.2318 95.7227 14.3272 95.2857 14.5179C94.8488 14.698 94.4651 14.9523 94.1347 15.2808C93.8043 15.6093 93.5432 15.9907 93.3514 16.4252C93.1702 16.8596 93.0796 17.3258 93.0796 17.8238V18.9682H89.179V7.04768H115.652V9.68609H93.0796V12.7377C93.4313 12.4834 93.8203 12.2662 94.2466 12.0861Z" fill="white"/>
<path d="M121.471 7.04768V18.9682H117.57V7.04768H121.471Z" fill="white"/>
<path d="M143.962 16.3298C144.218 16.3298 144.457 16.2874 144.681 16.2026C144.905 16.1179 145.102 16.0013 145.273 15.853C145.454 15.694 145.598 15.5139 145.704 15.3126C145.822 15.1007 145.896 14.8728 145.928 14.6291H149.829C149.797 15.2331 149.648 15.8 149.381 16.3298C149.115 16.8596 148.768 17.3205 148.342 17.7126C147.916 18.1046 147.425 18.4119 146.871 18.6344C146.328 18.857 145.752 18.9682 145.145 18.9682H128.072C127.432 18.9682 126.825 18.8464 126.249 18.6026C125.684 18.3589 125.189 18.0305 124.762 17.6172C124.336 17.1934 123.995 16.6954 123.739 16.1232C123.494 15.551 123.372 14.9417 123.372 14.2954V11.7205C123.372 11.0742 123.494 10.4649 123.739 9.89271C123.995 9.32053 124.336 8.82252 124.762 8.39868C125.189 7.97483 125.684 7.64106 126.249 7.39735C126.825 7.15364 127.432 7.03709 128.072 7.04768H145.145C145.752 7.04768 146.328 7.15894 146.871 7.38146C147.425 7.60397 147.916 7.91126 148.342 8.30331C148.768 8.69536 149.115 9.15629 149.381 9.68609C149.648 10.2159 149.797 10.7828 149.829 11.3868H145.928C145.896 11.143 145.822 10.9205 145.704 10.7192C145.598 10.5073 145.454 10.3272 145.273 10.1788C145.102 10.0199 144.905 9.89801 144.681 9.81324C144.457 9.71788 144.218 9.6702 143.962 9.6702H129.255C128.977 9.6702 128.716 9.72318 128.471 9.82914C128.237 9.9351 128.029 10.0781 127.848 10.2583C127.667 10.4384 127.523 10.6503 127.416 10.894C127.32 11.1272 127.272 11.3815 127.272 11.657V14.3589C127.272 14.6344 127.32 14.894 127.416 15.1377C127.523 15.3709 127.667 15.5775 127.848 15.7576C128.029 15.9377 128.237 16.0808 128.471 16.1868C128.716 16.2821 128.977 16.3298 129.255 16.3298H143.962Z" fill="white"/>
<path d="M155.647 7.04768V18.9682H151.747V7.04768H155.647Z" fill="white"/>
<path d="M162.747 18.9682C162.097 18.9682 161.485 18.8464 160.909 18.6026C160.344 18.3589 159.849 18.0252 159.422 17.6013C158.996 17.1775 158.66 16.6848 158.415 16.1232C158.17 15.551 158.048 14.9417 158.048 14.2954V7.04768H161.948V14.3589C161.948 14.6344 161.996 14.894 162.092 15.1377C162.199 15.3709 162.342 15.5775 162.524 15.7576C162.705 15.9377 162.913 16.0808 163.147 16.1868C163.392 16.2927 163.653 16.3457 163.93 16.3457H180.636V7.04768H184.521V18.9682H162.747Z" fill="white"/>
<path d="M231.3 7.04768C231.95 7.04768 232.558 7.16954 233.122 7.41324C233.698 7.65695 234.199 7.99073 234.625 8.41457C235.051 8.83841 235.387 9.33642 235.632 9.90861C235.877 10.4702 236 11.0742 236 11.7205V18.9682H232.099V11.657C232.099 11.3815 232.046 11.1272 231.94 10.894C231.844 10.6503 231.705 10.4384 231.524 10.2583C231.343 10.0781 231.13 9.9351 230.884 9.82914C230.65 9.72318 230.394 9.6702 230.117 9.6702H220.254C219.305 9.6702 218.415 9.85033 217.584 10.2106C216.763 10.5603 216.039 11.0477 215.41 11.6728C214.792 12.2874 214.301 13.0079 213.939 13.8344C213.587 14.6609 213.412 15.5404 213.412 16.4728V18.9682H209.511V16.4728C209.511 15.5404 209.33 14.6609 208.967 13.8344C208.616 13.0079 208.125 12.2874 207.497 11.6728C206.879 11.0477 206.154 10.5603 205.323 10.2106C204.491 9.85033 203.607 9.6702 202.669 9.6702H192.805C192.528 9.6702 192.267 9.72318 192.022 9.82914C191.788 9.9351 191.58 10.0781 191.399 10.2583C191.217 10.4384 191.074 10.6503 190.967 10.894C190.871 11.1272 190.823 11.3815 190.823 11.657V18.9682H186.923V11.7205C186.923 11.0742 187.045 10.4702 187.29 9.90861C187.535 9.33642 187.871 8.83841 188.297 8.41457C188.724 7.99073 189.219 7.65695 189.784 7.41324C190.36 7.16954 190.972 7.04768 191.622 7.04768H203.644C204.443 7.04768 205.216 7.14305 205.962 7.33377C206.708 7.51391 207.411 7.77351 208.072 8.11258C208.744 8.44106 209.362 8.84901 209.927 9.33642C210.502 9.81324 211.014 10.343 211.461 10.9258C211.909 10.343 212.415 9.81324 212.98 9.33642C213.555 8.84901 214.174 8.44106 214.834 8.11258C215.506 7.77351 216.214 7.51391 216.96 7.33377C217.706 7.14305 218.479 7.04768 219.278 7.04768H231.3Z" fill="white"/>
</svg>
