<svg width="44" height="42" viewBox="0 0 44 42" fill="none" xmlns="http://www.w3.org/2000/svg">
<path d="M29.6047 10.5723L41.5124 34.3947C43.0293 37.4294 40.8232 41 37.4313 41H29.6047M29.6047 10.5723L26.0811 3.52301C24.3996 0.158997 19.6004 0.158999 17.9189 3.52301L2.4876 34.3947C0.970686 37.4294 3.17679 41 6.5687 41H14.3953M29.6047 10.5723L22 18.1792M14.3953 41H29.6047M14.3953 41L6.79061 33.3931M29.6047 41L14.3953 25.7861M22 18.1792L41.392 37.5769M22 18.1792L14.3953 25.7861M2.60803 37.5769L6.79061 33.3931M6.79061 33.3931L14.3953 25.7861" stroke="white" stroke-width="2" stroke-linecap="round" stroke-linejoin="round"/>
</svg>
